#!OML:ASF H:\Dans Jumps\Project 1\Capture day 1\Session 1\subject.ASF
:FULLY-SPECIFIED
:DEGREES
361
root 0.729948 21.177 -5.38878 4.89212 5.32712 -1.13337
lowerback 5.59186 0.0570406 -1.40057
upperback 4.07454 0.0162893 2.17248
thorax 1.05982 -0.0452646 3.02185
lowerneck -10.1589 -1.54654 -3.54432
upperneck 28.7128 -1.8733 1.6943
head 10.9744 -1.01281 1.00067
rclavicle 1.66979e-014 1.55052e-014
rhumerus -0.904949 -15.4135 -88.8921
rradius 21.4469
rwrist 36.3844
rhand -23.6888 -22.2024
rfingers 7.12502
rthumb 2.77793 -52.164
lclavicle 1.66979e-014 1.55052e-014
lhumerus 6.70951 -14.5763 92.9844
lradius 25.8502
lwrist 18.5528
lhand -28.0196 -10.396
lfingers 7.12502
lthumb -1.40486 19.5791
rfemur -22.6835 -4.22126 19.3398
rtibia 33.9088
rfoot 15.205 -4.08511
rtoes 13.3672
lfemur -25.7099 5.66214 -18.3702
ltibia 46.1451
lfoot 19.4485 0.503063
ltoes 3.39537
362
root 0.733344 21.16 -5.2181 4.88891 5.37015 -1.01663
lowerback 5.55732 0.109166 -1.4455
upperback 4.05806 0.0842575 2.1207
thorax 1.05767 -0.0112854 2.99047
lowerneck -10.0744 -1.59786 -3.58234
upperneck 28.8439 -1.96737 1.78693
head 11.0117 -1.04883 1.03056
rclavicle 3.37934e-015 0
rhumerus -0.969879 -15.9007 -89.0141
rradius 21.3393
rwrist 36.5221
rhand -23.8857 -22.2602
rfingers 7.12502
rthumb 2.58779 -52.2243
lclavicle 3.37934e-015 0
lhumerus 6.56055 -14.7627 93.1137
lradius 25.9428
lwrist 18.3077
lhand -28.0756 -10.4738
lfingers 7.12502
lthumb -1.45889 19.5009
rfemur -23.1583 -4.26941 19.1365
rtibia 32.6159
rfoot 15.5311 -4.19303
rtoes 13.2613
lfemur -25.9669 5.68718 -18.6183
ltibia 44.2406
lfoot 18.6608 0.0362089
ltoes 3.21617
363
root 0.736971 21.1306 -5.04544 4.86327 5.44171 -0.894457
lowerback 5.53402 0.152323 -1.48692
upperback 4.0494 0.140377 2.07102
thorax 1.05813 0.0167087 2.95987
lowerneck -10.0051 -1.6482 -3.61897
upperneck 28.9579 -2.05789 1.87266
head 11.0455 -1.08372 1.05806
rclavicle 1.2921e-015 -1.51076e-014
rhumerus -1.06533 -16.2575 -89.1013
rradius 21.31
rwrist 36.5613
rhand -24.0535 -22.3493
rfingers 7.12502
rthumb 2.4257 -52.3152
lclavicle 1.2921e-015 -1.51076e-014
lhumerus 6.37612 -14.9424 93.2137
lradius 26.1053
lwrist 18.1536
lhand -28.0843 -10.5149
lfingers 7.12502
lthumb -1.46734 19.4598
rfemur -23.5998 -4.3056 18.9094
rtibia 31.368
rfoot 15.7982 -4.28434
rtoes 13.114
lfemur -26.1435 5.65545 -18.8645
ltibia 42.204
lfoot 17.8987 -0.396227
ltoes 3.12813
364
root 0.740586 21.0888 -4.87091 4.81772 5.52036 -0.766507
lowerback 5.51438 0.194625 -1.53528
upperback 4.04484 0.195046 2.02509
thorax 1.06091 0.0437223 2.93718
lowerneck -9.93838 -1.69939 -3.6535
upperneck 29.0597 -2.14742 1.94933
head 11.0753 -1.1189 1.082
rclavicle -1.10325e-014 1.59028e-015
rhumerus -1.19964 -16.493 -89.1481
rradius 21.3506
rwrist 36.5164
rhand -24.2219 -22.4215
rfingers 7.12502
rthumb 2.26303 -52.3892
lclavicle -1.10325e-014 1.59028e-015
lhumerus 6.15248 -15.1201 93.2859
lradius 26.3381
lwrist 18.1527
lhand -28.0367 -10.5285
lfingers 7.12502
lthumb -1.42136 19.4465
rfemur -24.0116 -4.31065 18.657
rtibia 30.1694
rfoot 16.0002 -4.34911
rtoes 12.9584
lfemur -26.2514 5.58952 -19.1117
ltibia 40.0683
lfoot 17.1912 -0.771874
ltoes 3.09178
365
root 0.744138 21.0346 -4.69494 4.7526 5.60329 -0.641839
lowerback 5.4954 0.237247 -1.58399
upperback 4.04546 0.250102 1.98628
thorax 1.06865 0.0707217 2.92207
lowerneck -9.8717 -1.75165 -3.68798
upperneck 29.151 -2.23662 2.01943
head 11.1013 -1.15463 1.10359
rclavicle 1.10325e-014 -7.95139e-016
rhumerus -1.36528 -16.6128 -89.1568
rradius 21.4559
rwrist 36.3837
rhand -24.3763 -22.4828
rfingers 7.12502
rthumb 2.11398 -52.4521
lclavicle 1.10325e-014 -7.95139e-016
lhumerus 5.90711 -15.2991 93.3303
lradius 26.6236
lwrist 18.3315
lhand -27.9299 -10.5001
lfingers 7.12502
lthumb -1.31822 19.4756
rfemur -24.3948 -4.28488 18.3909
rtibia 29.025
rfoot 16.149 -4.38875
rtoes 12.8242
lfemur -26.3037 5.50125 -19.3504
ltibia 37.864
lfoot 16.5788 -1.07911
ltoes 3.06428
366
root 0.747584 20.9685 -4.51695 4.66876 5.68749 -0.530294
lowerback 5.46744 0.28286 -1.62219
upperback 4.04611 0.30964 1.95458
thorax 1.08112 0.100029 2.90824
lowerneck -9.80051 -1.80464 -3.72336
upperneck 29.2458 -2.3263 2.08731
head 11.1278 -1.19089 1.12457
rclavicle 8.94531e-016 7.55382e-015
rhumerus -1.56648 -16.6327 -89.1272
rradius 21.6071
rwrist 36.1682
rhand -24.5261 -22.5241
rfingers 7.12502
rthumb 1.96929 -52.4948
lclavicle 8.94531e-016 7.55382e-015
lhumerus 5.63057 -15.4934 93.3478
lradius 26.9489
lwrist 18.6813
lhand -27.7819 -10.4762
lfingers 7.12502
lthumb -1.17528 19.5003
rfemur -24.7454 -4.23448 18.1251
rtibia 27.9365
rfoot 16.273 -4.41964
rtoes 12.7348
lfemur -26.3104 5.40053 -19.5684
ltibia 35.6206
lfoot 16.0998 -1.33196
ltoes 2.97167
367
root 0.751179 20.8904 -4.33723 4.56855 5.76827 -0.428227
lowerback 5.41717 0.329317 -1.65176
upperback 4.05281 0.370817 1.92699
thorax 1.11215 0.129981 2.89388
lowerneck -9.71946 -1.8549 -3.7431
upperneck 29.3384 -2.411 2.13831
head 11.151 -1.22521 1.13741
rclavicle 7.95139e-016 -1.19271e-015
rhumerus -1.79559 -16.5685 -89.0741
rradius 21.8076
rwrist 35.8763
rhand -24.6668 -22.5634
rfingers 7.12502
rthumb 1.83334 -52.5353
lclavicle 7.95139e-016 -1.19271e-015
lhumerus 5.36528 -15.7123 93.3171
lradius 27.2764
lwrist 19.1721
lhand -27.604 -10.4563
lfingers 7.12502
lthumb -1.0035 19.521
rfemur -25.0644 -4.17435 17.8597
rtibia 26.9059
rfoot 16.4064 -4.47151
rtoes 12.7782
lfemur -26.2876 5.29917 -19.7712
ltibia 33.368
lfoot 15.8006 -1.56034
ltoes 2.74159
368
root 0.754731 20.8007 -4.15549 4.45241 5.84084 -0.346578
lowerback 5.34399 0.380815 -1.6598
upperback 4.06026 0.439769 1.90318
thorax 1.15628 0.164041 2.87116
lowerneck -9.63658 -1.90824 -3.7679
upperneck 29.4472 -2.50178 2.19761
head 11.1806 -1.26183 1.15357
rclavicle 6.85807e-015 -1.98785e-015
rhumerus -2.03326 -16.4576 -89.0023
rradius 22.0137
rwrist 35.5342
rhand -24.8009 -22.6035
rfingers 7.12502
rthumb 1.70382 -52.5764
lclavicle 6.85807e-015 -1.98785e-015
lhumerus 5.09685 -15.9419 93.2496
lradius 27.6014
lwrist 19.705
lhand -27.4043 -10.4303
lfingers 7.12502
lthumb -0.810587 19.5479
rfemur -25.3487 -4.11036 17.6121
rtibia 25.9327
rfoot 16.5765 -4.58246
rtoes 13.0236
lfemur -26.248 5.2106 -19.9464
ltibia 31.1356
lfoot 15.7253 -1.80677
ltoes 2.35041
369
root 0.758142 20.6993 -3.97162 4.31769 5.89658 -0.279467
lowerback 5.24612 0.439511 -1.65274
upperback 4.07103 0.519095 1.87932
thorax 1.21707 0.203366 2.83976
lowerneck -9.56121 -1.96427 -3.78896
upperneck 29.576 -2.59804 2.25918
head 11.2198 -1.30017 1.16936
rclavicle 6.26172e-015 1.19271e-014
rhumerus -2.27006 -16.33 -88.9235
rradius 22.2186
rwrist 35.1706
rhand -24.9257 -22.6607
rfingers 7.12502
rthumb 1.58336 -52.6346
lclavicle 6.26172e-015 1.19271e-014
lhumerus 4.84175 -16.1838 93.1368
lradius 27.9041
lwrist 20.2093
lhand -27.1984 -10.4075
lfingers 7.12502
lthumb -0.611699 19.5714
rfemur -25.5952 -4.04017 17.3797
rtibia 25.0237
rfoot 16.7983 -4.77509
rtoes 13.4583
lfemur -26.1998 5.15952 -20.1039
ltibia 28.9539
lfoot 15.9118 -2.11332
ltoes 1.89924
370
root 0.76136 20.5865 -3.78556 4.16204 5.94108 -0.225958
lowerback 5.12734 0.503247 -1.63254
upperback 4.07885 0.605814 1.85598
thorax 1.28618 0.246598 2.8016
lowerneck -9.47398 -2.02281 -3.81018
upperneck 29.7206 -2.69993 2.32507
head 11.2632 -1.34058 1.18632
rclavicle -9.54166e-015 1.55052e-014
rhumerus -2.50769 -16.2169 -88.8398
rradius 22.4027
rwrist 34.8229
rhand -25.0596 -22.7194
rfingers 7.12502
rthumb 1.45404 -52.6942
lclavicle -9.54166e-015 1.55052e-014
lhumerus 4.57423 -16.397 92.999
lradius 28.1913
lwrist 20.5851
lhand -27.0008 -10.3609
lfingers 7.12502
lthumb -0.420852 19.6185
rfemur -25.7994 -3.9703 17.1643
rtibia 24.189
rfoot 17.068 -5.06965
rtoes 14.1179
lfemur -26.1483 5.16015 -20.2506
ltibia 26.8543
lfoot 16.3335 -2.50245
ltoes 1.43356
371
root 0.764749 20.4621 -3.59733 3.98279 5.97356 -0.173674
lowerback 4.98632 0.569961 -1.60846
upperback 4.08852 0.696815 1.82958
thorax 1.36957 0.29192 2.75846
lowerneck -9.3887 -2.08161 -3.82881
upperneck 29.879 -2.803 2.39035
head 11.3126 -1.38124 1.20261
rclavicle -1.10325e-014 -1.94809e-014
rhumerus -2.71509 -16.1446 -88.7618
rradius 22.5372
rwrist 34.5259
rhand -25.2015 -22.7825
rfingers 7.12502
rthumb 1.31692 -52.7582
lclavicle -1.10325e-014 -1.94809e-014
lhumerus 4.30126 -16.56 92.838
lradius 28.4627
lwrist 20.7923
lhand -26.814 -10.2963
lfingers 7.12502
lthumb -0.240431 19.6833
rfemur -25.9602 -3.91334 16.9543
rtibia 23.4486
rfoot 17.3735 -5.44481
rtoes 14.9123
lfemur -26.0915 5.23144 -20.4104
ltibia 24.8687
lfoot 16.9487 -2.9634
ltoes 1.07273
372
root 0.768031 20.3256 -3.40708 3.78041 6.00528 -0.120924
lowerback 4.82261 0.634947 -1.58655
upperback 4.09373 0.785645 1.8033
thorax 1.4613 0.336074 2.71736
lowerneck -9.2789 -2.13857 -3.85141
upperneck 30.039 -2.90353 2.455
head 11.3579 -1.42138 1.21998
rclavicle -6.4605e-015 1.55052e-014
rhumerus -2.90131 -16.1175 -88.6872
rradius 22.6168
rwrist 34.2958
rhand -25.3544 -22.8341
rfingers 7.12502
rthumb 1.1693 -52.8106
lclavicle -6.4605e-015 1.55052e-014
lhumerus 4.01733 -16.6642 92.6604
lradius 28.7126
lwrist 20.8459
lhand -26.645 -10.207
lfingers 7.12502
lthumb -0.0772525 19.7727
rfemur -26.081 -3.86271 16.7468
rtibia 22.8258
rfoot 17.7046 -5.88673
rtoes 15.7438
lfemur -26.031 5.37276 -20.5908
ltibia 23.0304
lfoot 17.6647 -3.46043
ltoes 0.810526
373
root 0.771324 20.1764 -3.2148 3.54451 6.03493 -0.0679397
lowerback 4.63745 0.698284 -1.56566
upperback 4.10145 0.872414 1.77724
thorax 1.56788 0.378995 2.67788
lowerneck -9.15976 -2.19422 -3.86947
upperneck 30.2056 -3.00063 2.50861
head 11.4038 -1.4608 1.23312
rclavicle 1.799e-014 3.97569e-015
rhumerus -3.04579 -16.1514 -88.6217
rradius 22.6287
rwrist 34.1591
rhand -25.4695 -22.9146
rfingers 7.12502
rthumb 1.0581 -52.8917
lclavicle 1.799e-014 3.97569e-015
lhumerus 3.72949 -16.6995 92.4692
lradius 28.944
lwrist 20.792
lhand -26.5028 -10.1144
lfingers 7.12502
lthumb 0.0601589 19.8654
rfemur -26.1556 -3.81524 16.5427
rtibia 22.3474
rfoot 18.0651 -6.3601
rtoes 16.5675
lfemur -25.9504 5.57322 -20.7901
ltibia 21.3749
lfoot 18.3797 -3.93026
ltoes 0.584939
